<svg xmlns="http://www.w3.org/2000/svg" xmlns:xlink="http://www.w3.org/1999/xlink" width="221" height="221" viewBox="0 0 221 221"><defs><path id="a" d="M188.6 32.4C167.8 11.5 140 0 110.5 0S53.2 11.5 32.4 32.4 0 81 0 110.5s11.5 57.3 32.4 78.1S81 221 110.5 221s57.3-11.5 78.1-32.4c20.9-20.9 32.4-48.6 32.4-78.1s-11.5-57.3-32.4-78.1z"/></defs><clipPath id="b"><use xlink:href="#a" overflow="visible"/></clipPath><path d="M47 142c-2.2 0-4-2.3-4-4.5v-54c0-2.2 1.8-3.5 4-3.5h152.8c-12.9-37-48-63.8-89.3-63.8-52.1.1-94.5 42.3-94.5 94.4s42.4 94.7 94.5 94.7c41.3 0 76.4-27.3 89.3-63.3H47z" clip-path="url(#b)" fill="#F7931E"/><g clip-path="url(#b)"><path d="M209 80c2.2 0 4 1.3 4 3.5v54c0 2.2-1.8 4.5-4 4.5H47c-2.2 0-4-2.3-4-4.5v-54c0-2.2 1.8-3.5 4-3.5h162m0-8H47c-6.6 0-12 4.9-12 11.5v54c0 6.6 5.4 12.5 12 12.5h162c6.6 0 12-5.9 12-12.5v-54c0-6.6-5.4-11.5-12-11.5z" fill="#F7931E"/></g><g clip-path="url(#b)"><path d="M87.3 109l-6 6c-3.3 3.3-8.7 3.3-12 0-.5-.5-.9-1.1-1.3-1.7l2.8-2.8c.1-.1.3-.2.5-.3.2.7.5 1.3 1 1.8 1.7 1.7 4.4 1.7 6 0l6-6c1.7-1.7 1.7-4.4 0-6-1.7-1.7-4.3-1.7-6 0l-2.1 2.1c-1.7-.7-3.6-.9-5.4-.6l4.6-4.6c3.3-3.3 8.7-3.3 12 0 3.2 3.4 3.2 8.8-.1 12.1zm-15.9 9.9l-2.1 2.1c-1.7 1.7-4.4 1.7-6 0-1.7-1.7-1.7-4.4 0-6l6-6c1.7-1.7 4.3-1.7 6 0 .5.5.9 1.1 1 1.8.2-.1.3-.2.5-.3l2.8-2.8c-.4-.6-.8-1.2-1.3-1.7-3.3-3.3-8.7-3.3-12 0l-6 6c-3.3 3.3-3.3 8.7 0 12 3.3 3.3 8.7 3.3 12 0l4.6-4.6c-1.9.3-3.8.1-5.5-.5z" fill="#F7931E"/></g><g clip-path="url(#b)"><path d="M193.2 103c2.8 0 3.5 1.6 1.6 3.7l-7.2 7.7c-1.9 2-4.9 2-6.8 0l-7.2-7.7c-1.9-2-1.2-3.7 1.6-3.7h18z" fill="#F7931E"/></g><g clip-path="url(#b)"><path d="M110.5 8C167.1 8 213 53.9 213 110.5S167.1 213 110.5 213 8 167.1 8 110.5 53.9 8 110.5 8m0-8C81 0 53.2 11.5 32.4 32.4S0 81 0 110.5s11.5 57.3 32.4 78.1S81 221 110.5 221s57.3-11.5 78.1-32.4c20.9-20.9 32.4-48.6 32.4-78.1s-11.5-57.3-32.4-78.1C167.8 11.5 140 0 110.5 0z" fill="#F7931E"/></g></svg>
